<svg width="306" height="129" viewBox="0 0 306 129" fill="none" xmlns="http://www.w3.org/2000/svg">
  <path d="M210.86 128.136H251.241V88.8381H295.66V52.4952H251.241V36.3429L305.947 36.2762L269.688 0L210.86 5.54666e-06V128.136Z" fill="#F5395B"/>
  <path fill-rule="evenodd" clip-rule="evenodd" d="M269.705 0.0273438L269.705 26.6041C269.705 31.9481 274.037 36.2803 279.381 36.2803L305.958 36.2803L269.705 0.0273438Z" fill="white" fill-opacity="0.5"/>
  <path d="M157.704 91.993V37.4787H165.781C179.712 37.4787 192.028 49.593 192.028 64.7358C192.028 79.8787 179.712 91.993 165.781 91.993H157.704ZM117.324 128.336H165.781C205.354 128.336 232.409 101.079 232.409 64.7358C232.409 28.393 205.354 1.13586 165.781 1.13586H117.324V128.336Z" fill="#A8CF38"/>
  <path fill-rule="evenodd" clip-rule="evenodd" d="M34.6221 37.7396L34.6221 128.602H75.003V94.2779H91.1554C121.441 94.2779 140.622 75.097 140.622 47.8398C140.622 20.5827 121.441 1.40173 91.1554 1.40173H74.7787L34.6221 37.7396ZM75.003 37.7446V57.9351H87.1173C94.184 57.9351 98.2221 54.0989 98.2221 47.8398C98.2221 41.5808 94.184 37.7446 87.1173 37.7446H75.003Z" fill="#2AA6FF"/>
  <path fill-rule="evenodd" clip-rule="evenodd" d="M34.6221 37.7397L65.0982 37.7397C70.4422 37.7397 74.7744 33.4075 74.7744 28.0635V1.4057L34.6221 37.7397Z" fill="white" fill-opacity="0.5"/>
  <path fill-rule="evenodd" clip-rule="evenodd" d="M210.86 113.182C224.431 101.715 232.373 84.692 232.373 65.0017C232.373 45.3113 224.431 28.288 210.86 16.8217V113.182Z" fill="#FFCA3A"/>
  <circle cx="19.9571" cy="108.178" r="19.9571" fill="#6F38E4"/>
  <path fill-rule="evenodd" clip-rule="evenodd" d="M117.287 7.19849V88.27C132.038 80.5889 140.622 65.9688 140.622 47.7342C140.622 29.4997 132.038 14.8795 117.287 7.19849Z" fill="#6F38E4"/>
</svg>
